# xmcd
#
# Track frame offsets: 
#        187
#        14545
#        26400
#        46520
#        63387
#        85852
#        101212
#        118825
#        142087
#        170465
#        189520
#        206200
#        223797
#        245865
#        262345
#        283115
#        301625
#        324410
#
# Disc length: 4532 seconds
#
# Revision: 0
# Processed by: cddbd v1.5.2PL0 Copyright (c) Steve Scherf et al.
# Submitted via: ExactAudioCopy v1.0b1
#
DISCID=1311b212
DTITLE=Various Artist - Motown Originals Sampler Vol. 1
DYEAR=1900
DGENRE=R&B
TTITLE0=Stevie Wonder - Fingertips (Part II)
TTITLE1=Stevie Wonder - I Was Made to Love Her
TTITLE2=Stevie Wonder - Superstition
TTITLE3=Stevie Wonder - Higher Ground
TTITLE4=Stevie Wonder - Boogie On Reggae Woman
TTITLE5=Stevie Wonder - You Haven't Done Nothing
TTITLE6=Stevie Wonder - Sir Duke
TTITLE7=Stevie Wonder - Master Blaster
TTITLE8=Stevie Wonder - I Just Called to Say I Love You
TTITLE9=Stevie Wonder - Part-Time Lover
TTITLE10=Marvin Gaye - Unforgettable
TTITLE11=Marvin Gaye - What's Goin' On
TTITLE12=Marvin Gaye - Let's Get It On
TTITLE13=Marvin Gaye - You're a Special Part of Me
TTITLE14=Marvin Gaye - I Want You
TTITLE15=Lionel Richie - My Love
TTITLE16=Lionel Richie - You Are
TTITLE17=The Commodores - Brick House
EXTD=
EXTT0=
EXTT1=
EXTT2=
EXTT3=
EXTT4=
EXTT5=
EXTT6=
EXTT7=
EXTT8=
EXTT9=
EXTT10=
EXTT11=
EXTT12=
EXTT13=
EXTT14=
EXTT15=
EXTT16=
EXTT17=
PLAYORDER=
